<svg xmlns="http://www.w3.org/2000/svg" viewBox="0 0 100 100" fill="none">
  <defs>
    <linearGradient id="g" x1="0%" y1="100%" x2="100%" y2="0%">
      <stop offset="0%" stop-color="hsl(270,60%,70%)"/>
      <stop offset="50%" stop-color="hsl(220,70%,65%)"/>
      <stop offset="100%" stop-color="hsl(195,80%,70%)"/>
    </linearGradient>
  </defs>
  <line x1="50" y1="42" x2="50" y2="20" stroke="url(#g)" stroke-width="5" stroke-linecap="round"/>
  <line x1="50" y1="42" x2="50" y2="26" stroke="url(#g)" stroke-width="5" stroke-linecap="round" transform="rotate(30 50 50)"/>
  <line x1="50" y1="42" x2="50" y2="22" stroke="url(#g)" stroke-width="5" stroke-linecap="round" transform="rotate(60 50 50)"/>
  <line x1="50" y1="42" x2="50" y2="18" stroke="url(#g)" stroke-width="5" stroke-linecap="round" transform="rotate(90 50 50)"/>
  <line x1="50" y1="42" x2="50" y2="28" stroke="url(#g)" stroke-width="5" stroke-linecap="round" transform="rotate(120 50 50)"/>
  <line x1="50" y1="42" x2="50" y2="24" stroke="url(#g)" stroke-width="5" stroke-linecap="round" transform="rotate(150 50 50)"/>
  <line x1="50" y1="42" x2="50" y2="20" stroke="url(#g)" stroke-width="5" stroke-linecap="round" transform="rotate(180 50 50)"/>
  <line x1="50" y1="42" x2="50" y2="26" stroke="url(#g)" stroke-width="5" stroke-linecap="round" transform="rotate(210 50 50)"/>
  <line x1="50" y1="42" x2="50" y2="22" stroke="url(#g)" stroke-width="5" stroke-linecap="round" transform="rotate(240 50 50)"/>
  <line x1="50" y1="42" x2="50" y2="28" stroke="url(#g)" stroke-width="5" stroke-linecap="round" transform="rotate(270 50 50)"/>
  <line x1="50" y1="42" x2="50" y2="24" stroke="url(#g)" stroke-width="5" stroke-linecap="round" transform="rotate(300 50 50)"/>
  <line x1="50" y1="42" x2="50" y2="30" stroke="url(#g)" stroke-width="5" stroke-linecap="round" transform="rotate(330 50 50)"/>
</svg>
